<!-- <?xml version="1.0" standalone="no"?>
<!DOCTYPE svg PUBLIC "-//W3C//DTD SVG 20010904//EN"
 "http://www.w3.org/TR/2001/REC-SVG-20010904/DTD/svg10.dtd"> -->
<svg version="1.0" xmlns="http://www.w3.org/2000/svg"
 width="50.000000pt" height="50.000000pt" viewBox="0 0 50.000000 50.000000"
 preserveAspectRatio="xMidYMid meet">

<g transform="translate(0.000000,50.000000) scale(0.100000,-0.100000)"
fill="#000000" stroke="none">
<path d="M330 379 c-86 -50 -114 -61 -158 -63 -60 -4 -98 -26 -122 -72 -8 -15
-24 -35 -34 -44 -26 -23 -12 -43 25 -35 25 6 29 4 29 -14 0 -14 -8 -23 -25
-27 -32 -8 -52 -31 -37 -46 7 -7 24 -6 58 6 26 9 78 16 115 16 64 0 69 2 93
32 20 26 45 39 117 63 100 34 124 54 97 81 -15 16 -21 15 -85 -11 -37 -15 -73
-29 -78 -31 -6 -3 -18 8 -27 24 l-17 28 95 47 c52 26 97 54 100 62 7 17 -12
45 -30 44 -6 0 -58 -27 -116 -60z m128 29 c-6 -16 -185 -111 -200 -106 -11 4
177 118 195 118 5 0 7 -5 5 -12z m-290 -135 c-4 -33 -24 -41 -33 -12 -5 14 -2
25 6 30 23 15 30 10 27 -18z m46 21 c24 -9 21 -54 -4 -54 -16 0 -20 7 -20 30
0 32 1 33 24 24z m-94 -51 c0 -17 -27 -16 -33 1 -8 19 14 40 25 23 4 -6 8 -18
8 -24z m160 8 c14 -27 13 -31 -8 -31 -25 0 -31 7 -25 31 7 24 19 24 33 0z
m198 7 c-4 -12 -388 -151 -395 -144 -3 3 378 155 390 156 5 0 7 -6 5 -12z
m-398 -37 c0 -6 -4 -13 -10 -16 -5 -3 -10 1 -10 9 0 9 5 16 10 16 6 0 10 -4
10 -9z m154 -10 c5 -8 -111 -61 -134 -61 -20 0 -10 47 13 58 27 13 114 15 121
3z m16 -76 c-7 -8 -24 -15 -39 -14 -24 0 -24 1 9 14 45 17 44 17 30 0z"/>
</g>
</svg>
